<?xml version="1.0" standalone="no"?>
<!DOCTYPE svg PUBLIC "-//W3C//DTD SVG 20010904//EN"
 "http://www.w3.org/TR/2001/REC-SVG-20010904/DTD/svg10.dtd">
<svg version="1.0" xmlns="http://www.w3.org/2000/svg"
 width="176.000000pt" height="176.000000pt" viewBox="0 0 176.000000 176.000000"
 preserveAspectRatio="xMidYMid meet">

<g transform="translate(0.000000,176.000000) scale(0.100000,-0.100000)"
fill="#000000" stroke="none">
<path d="M0 880 l0 -880 880 0 880 0 0 880 0 880 -880 0 -880 0 0 -880z m1060
714 c36 -8 101 -32 145 -54 257 -126 409 -369 408 -655 0 -129 -17 -204 -73
-320 -157 -323 -544 -484 -883 -367 -107 37 -180 80 -263 155 -293 268 -312
734 -42 1022 190 204 436 280 708 219z"/>
<path d="M760 1594 c-228 -43 -420 -194 -520 -409 -52 -110 -65 -172 -65 -300
1 -132 18 -206 77 -325 34 -68 61 -103 133 -176 77 -78 104 -98 185 -137 225
-109 477 -100 687 24 92 54 212 180 260 275 68 130 86 213 81 368 -5 146 -27
228 -90 334 -48 82 -160 196 -242 247 -116 72 -208 98 -356 101 -69 1 -136 0
-150 -2z m215 -146 c31 -14 55 -56 55 -96 0 -16 -11 -62 -25 -103 -14 -41 -37
-128 -50 -194 -72 -356 -40 -575 85 -575 43 0 75 25 110 87 27 48 40 56 75 43
48 -18 54 -129 11 -195 -40 -61 -186 -94 -256 -58 -50 26 -93 89 -129 188 -44
121 -61 234 -61 399 0 233 43 453 96 495 30 24 52 26 89 9z m-338 -20 c52 -58
55 -184 9 -364 -69 -271 -58 -341 91 -564 44 -67 66 -111 70 -139 6 -44 0 -48
-62 -41 -52 5 -117 113 -156 258 -34 125 -82 192 -128 177 -10 -3 -23 -17 -29
-31 -23 -49 -15 -73 47 -137 82 -86 94 -113 66 -141 -24 -24 -69 -2 -116 57
-108 135 -148 293 -129 499 16 171 58 268 115 268 54 0 66 -70 35 -210 -31
-143 -19 -200 42 -200 23 0 32 6 43 33 26 63 28 136 6 260 -23 129 -18 225 14
273 20 30 55 31 82 2z m660 -127 c84 -61 140 -160 169 -301 22 -112 17 -359
-10 -409 -10 -18 -21 -29 -26 -25 -4 5 -10 41 -12 81 -4 80 -19 106 -75 129
-42 18 -115 18 -157 0 -18 -7 -50 -34 -71 -60 -20 -25 -43 -46 -51 -46 -26 0
-26 64 0 191 43 212 145 469 186 469 4 0 25 -13 47 -29z"/>
<path d="M1210 1120 c-26 -26 -52 -119 -48 -171 3 -38 7 -44 33 -51 31 -9 137
-4 168 7 24 10 22 87 -3 143 -38 84 -106 116 -150 72z"/>
</g>
</svg>
